<svg width="739" height="543" viewBox="0 0 739 543" fill="none" xmlns="http://www.w3.org/2000/svg">
<g clip-path="url(#clip0_343_945)">
<path d="M145.917 282.417L136.191 179.322L107.191 180.322L130.148 282.129C128.275 283.701 126.926 285.808 126.283 288.167C125.64 290.526 125.732 293.025 126.547 295.33C127.363 297.635 128.862 299.637 130.846 301.067C132.83 302.496 135.203 303.286 137.648 303.331C140.092 303.376 142.493 302.673 144.527 301.316C146.562 299.96 148.134 298.015 149.033 295.741C149.932 293.467 150.115 290.973 149.558 288.592C149.002 286.211 147.731 284.057 145.917 282.417Z" fill="#FFB8B8"/>
<path d="M697.238 512.201C696.971 522.186 695.298 532.083 692.27 541.601C692.201 541.822 692.128 542.04 692.056 542.26H673.513C673.533 542.06 673.553 541.841 673.572 541.601C674.808 527.388 681.936 440.885 673.414 426.092C674.16 427.293 698.672 467.04 697.238 512.201Z" fill="#F0F0F0"/>
<path d="M694.262 540.883C693.938 541.345 693.6 541.807 693.255 542.262H664.167C664.388 541.869 664.643 541.407 664.939 540.883C669.745 532.209 683.968 506.283 697.172 479.396C711.361 450.507 724.378 420.523 723.282 409.67C723.619 412.118 733.434 486.732 694.262 540.883Z" fill="#F0F0F0"/>
<path d="M55.3531 497.055C55.7515 511.925 58.2427 526.665 62.7531 540.84C62.8531 541.169 62.9641 541.493 63.0721 541.822H90.6841C90.6551 541.527 90.6251 541.198 90.5961 540.84C88.7551 519.674 78.1401 390.852 90.8321 368.822C89.7211 370.609 53.2081 429.801 55.3531 497.055Z" fill="#F0F0F0"/>
<path d="M57.425 540.84C57.656 541.169 57.896 541.498 58.142 541.822H78.856C78.699 541.542 78.517 541.213 78.306 540.84C74.884 534.664 64.755 516.198 55.353 497.055C45.253 476.483 35.979 455.131 36.76 447.403C36.519 449.145 29.527 502.279 57.425 540.84Z" fill="#F0F0F0"/>
<path d="M655.587 434.184H367.32C365.905 434.182 364.548 433.619 363.547 432.618C362.547 431.618 361.984 430.261 361.982 428.846V357.338C361.984 355.923 362.547 354.566 363.547 353.566C364.548 352.565 365.905 352.002 367.32 352H655.587C657.002 352.002 658.359 352.565 659.359 353.566C660.36 354.566 660.923 355.923 660.925 357.338V428.845C660.923 430.26 660.36 431.617 659.36 432.618C658.359 433.619 657.002 434.182 655.587 434.184ZM367.32 354.131C366.472 354.133 365.659 354.471 365.059 355.07C364.459 355.67 364.122 356.483 364.12 357.331V428.838C364.122 429.686 364.459 430.499 365.059 431.099C365.659 431.698 366.472 432.036 367.32 432.038H655.587C656.435 432.036 657.248 431.699 657.848 431.099C658.448 430.499 658.785 429.686 658.787 428.838V357.338C658.785 356.49 658.448 355.677 657.848 355.077C657.248 354.477 656.435 354.14 655.587 354.138L367.32 354.131Z" fill="#3F3D56"/>
<path d="M340.11 520.49C352.119 520.49 361.855 510.754 361.855 498.745C361.855 486.736 352.119 477 340.11 477C328.101 477 318.365 486.736 318.365 498.745C318.365 510.754 328.101 520.49 340.11 520.49Z" fill="#E6E6E6"/>
<path d="M390.332 484.999C389.371 484.999 388.449 485.381 387.769 486.06C387.09 486.74 386.708 487.662 386.708 488.623C386.708 489.584 387.09 490.506 387.769 491.186C388.449 491.865 389.371 492.247 390.332 492.247H561.188C561.664 492.248 562.135 492.155 562.575 491.974C563.015 491.793 563.415 491.526 563.753 491.191C564.09 490.855 564.358 490.456 564.541 490.016C564.724 489.577 564.818 489.106 564.819 488.63C564.82 488.154 564.727 487.683 564.546 487.243C564.365 486.803 564.099 486.403 563.763 486.065C563.427 485.728 563.028 485.461 562.589 485.278C562.149 485.095 561.678 485 561.202 484.999H390.332Z" fill="#E6E6E6"/>
<path d="M390.332 506.745C389.371 506.743 388.448 507.123 387.767 507.801C387.086 508.48 386.703 509.401 386.701 510.362C386.699 511.323 387.079 512.246 387.757 512.926C388.435 513.607 389.356 513.991 390.318 513.993H463.852C464.813 513.993 465.735 513.611 466.414 512.932C467.094 512.252 467.476 511.33 467.476 510.369C467.476 509.408 467.094 508.486 466.414 507.806C465.735 507.127 464.813 506.745 463.852 506.745H390.332Z" fill="#E6E6E6"/>
<path d="M412.11 414.49C424.119 414.49 433.855 404.754 433.855 392.745C433.855 380.736 424.119 371 412.11 371C400.101 371 390.365 380.736 390.365 392.745C390.365 404.754 400.101 414.49 412.11 414.49Z" fill="#E6E6E6"/>
<path d="M462.332 378.999C461.371 378.999 460.449 379.381 459.769 380.06C459.09 380.74 458.708 381.662 458.708 382.623C458.708 383.584 459.09 384.506 459.769 385.186C460.449 385.865 461.371 386.247 462.332 386.247H633.188C634.149 386.247 635.071 385.865 635.751 385.186C636.43 384.506 636.812 383.584 636.812 382.623C636.812 381.662 636.43 380.74 635.751 380.06C635.071 379.381 634.149 378.999 633.188 378.999H462.332Z" fill="#E6E6E6"/>
<path d="M462.332 400.745C461.371 400.745 460.449 401.127 459.769 401.806C459.09 402.486 458.708 403.408 458.708 404.369C458.708 405.33 459.09 406.252 459.769 406.932C460.449 407.611 461.371 407.993 462.332 407.993H535.852C536.813 407.993 537.735 407.611 538.415 406.932C539.094 406.252 539.476 405.33 539.476 404.369C539.476 403.408 539.094 402.486 538.415 401.806C537.735 401.127 536.813 400.745 535.852 400.745H462.332Z" fill="#E6E6E6"/>
<path d="M599.587 257.184H311.32C309.905 257.182 308.548 256.619 307.547 255.618C306.547 254.618 305.984 253.261 305.982 251.846V5.338C305.984 3.92284 306.547 2.56617 307.547 1.56551C308.548 0.564838 309.905 0.00185213 311.32 0H599.587C601.002 0.00185213 602.359 0.564838 603.359 1.56551C604.36 2.56617 604.923 3.92284 604.925 5.338V251.845C604.923 253.26 604.36 254.617 603.36 255.618C602.359 256.619 601.002 257.181 599.587 257.183V257.184ZM311.32 2.131C310.472 2.13285 309.659 2.47058 309.059 3.0703C308.459 3.67001 308.122 4.48287 308.12 5.33099V251.845C308.122 252.693 308.459 253.506 309.059 254.106C309.659 254.705 310.472 255.043 311.32 255.045H599.587C600.435 255.043 601.248 254.706 601.848 254.106C602.448 253.506 602.785 252.693 602.787 251.845V5.338C602.785 4.48987 602.447 3.67702 601.848 3.0773C601.248 2.47759 600.435 2.13985 599.587 2.138L311.32 2.131Z" fill="#3F3D56"/>
<path d="M356.11 65.093C368.119 65.093 377.855 55.3574 377.855 43.348C377.855 31.3385 368.119 21.603 356.11 21.603C344.101 21.603 334.365 31.3385 334.365 43.348C334.365 55.3574 344.101 65.093 356.11 65.093Z" fill="#094B72"/>
<path d="M406.332 28.851C405.371 28.851 404.449 29.2328 403.769 29.9125C403.09 30.5921 402.708 31.5139 402.708 32.475C402.708 33.4362 403.09 34.3579 403.769 35.0376C404.449 35.7172 405.371 36.099 406.332 36.099H577.188C578.149 36.099 579.071 35.7172 579.751 35.0376C580.43 34.3579 580.812 33.4362 580.812 32.475C580.812 31.5139 580.43 30.5921 579.751 29.9125C579.071 29.2328 578.149 28.851 577.188 28.851H406.332Z" fill="#CCCCCC"/>
<path d="M406.332 50.597C405.371 50.597 404.449 50.9789 403.769 51.6585C403.09 52.3381 402.708 53.2599 402.708 54.221C402.708 55.1822 403.09 56.104 403.769 56.7836C404.449 57.4632 405.371 57.845 406.332 57.845H479.852C480.813 57.845 481.735 57.4632 482.415 56.7836C483.094 56.104 483.476 55.1822 483.476 54.221C483.476 53.2599 483.094 52.3381 482.415 51.6585C481.735 50.9789 480.813 50.597 479.852 50.597H406.332Z" fill="#CCCCCC"/>
<path d="M233.19 521.322H211.19L198.19 338.322L197.69 384.822L149.69 512.822L130.69 497.822L162.19 370.322L147.19 299.322H245.19L233.19 521.322Z" fill="#212121"/>
<path d="M198.19 73.322C212.549 73.322 224.19 61.6814 224.19 47.322C224.19 32.9626 212.549 21.322 198.19 21.322C183.831 21.322 172.19 32.9626 172.19 47.322C172.19 61.6814 183.831 73.322 198.19 73.322Z" fill="#FFB8B8"/>
<path d="M248.191 313.322C205.713 302.422 165.857 295.077 141.191 308.322C145.511 262.911 140.514 204.943 125.691 144.357C120.877 124.678 124.142 106.946 141.691 96.822L165.191 83.322L201.191 84.322L219.974 94.714C229.159 99.3035 236.595 106.765 241.153 115.966C245.711 125.166 247.142 135.603 245.228 145.691C235.135 198.798 240.589 256.116 248.191 313.322Z" fill="#094B72"/>
<path d="M151.191 186.322L104.191 183.322C107.863 137.086 118.313 111.811 134.191 103.322L151.191 123.322V186.322Z" fill="#094B72"/>
<path d="M668.076 225.205H379.808C378.393 225.203 377.036 224.641 376.035 223.64C375.034 222.639 374.472 221.282 374.47 219.867V93.36C374.472 91.9448 375.034 90.5879 376.035 89.5872C377.036 88.5865 378.393 88.0236 379.808 88.022H668.076C669.491 88.0236 670.848 88.5865 671.849 89.5872C672.849 90.5879 673.412 91.9448 673.414 93.36V219.867C673.412 221.282 672.849 222.639 671.849 223.64C670.848 224.641 669.491 225.203 668.076 225.205Z" fill="#094B72"/>
<path d="M438.514 132.116C437.553 132.116 436.631 132.498 435.952 133.177C435.272 133.857 434.89 134.779 434.89 135.74C434.89 136.701 435.272 137.623 435.952 138.303C436.631 138.982 437.553 139.364 438.514 139.364H609.371C610.332 139.364 611.254 138.982 611.934 138.303C612.613 137.623 612.995 136.701 612.995 135.74C612.995 134.779 612.613 133.857 611.934 133.177C611.254 132.498 610.332 132.116 609.371 132.116H438.514Z" fill="white"/>
<path d="M438.514 153.116C437.553 153.116 436.631 153.498 435.952 154.177C435.272 154.857 434.89 155.779 434.89 156.74C434.89 157.701 435.272 158.623 435.952 159.303C436.631 159.982 437.553 160.364 438.514 160.364H609.371C610.332 160.364 611.254 159.982 611.934 159.303C612.613 158.623 612.995 157.701 612.995 156.74C612.995 155.779 612.613 154.857 611.934 154.177C611.254 153.498 610.332 153.116 609.371 153.116H438.514Z" fill="white"/>
<path d="M438.514 173.862C437.553 173.862 436.631 174.244 435.952 174.923C435.272 175.603 434.89 176.525 434.89 177.486C434.89 178.447 435.272 179.369 435.952 180.049C436.631 180.728 437.553 181.11 438.514 181.11H512.034C512.995 181.11 513.917 180.728 514.597 180.049C515.276 179.369 515.658 178.447 515.658 177.486C515.658 176.525 515.276 175.603 514.597 174.923C513.917 174.244 512.995 173.862 512.034 173.862H438.514Z" fill="white"/>
<path d="M207.055 13.109C204.633 12.855 202.349 14.144 199.966 14.671C195.066 15.745 190.046 13.519 185.008 13.538C180.678 13.7842 176.465 15.0415 172.708 17.209C169.67 18.645 166.897 20.5862 164.508 22.95C162.106 25.3519 160.707 28.5777 160.596 31.973C160.929 33.9179 160.869 35.9097 160.42 37.831C159.912 38.7998 159.309 39.7157 158.62 40.565C157.997 41.5658 157.599 42.6903 157.454 43.8605C157.308 45.0306 157.42 46.2183 157.78 47.341C158.79 49.5652 160.155 51.61 161.822 53.395C165.064 57.554 167.095 62.534 170.004 66.948C171.273 68.864 172.697 70.673 174.261 72.357C174.517 72.6553 174.829 72.9006 175.179 73.079C175.524 73.2001 175.888 73.2531 176.253 73.235C182.424 73.411 188.81 73.547 194.492 71.126C196.312 70.4949 197.858 69.2528 198.866 67.611C199.686 65.3584 199.835 62.9166 199.295 60.581C199.037 57.9798 199.096 55.3569 199.471 52.77C199.497 51.8964 199.854 51.0654 200.471 50.446C200.937 50.1565 201.471 49.9948 202.02 49.9772C202.568 49.9597 203.111 50.0869 203.595 50.346C204.56 50.8544 205.615 51.1725 206.7 51.283C208.829 51.283 210.176 48.861 210.606 46.752C210.371 44.8567 210.652 42.9332 211.419 41.1839C212.185 39.4347 213.409 37.9244 214.961 36.812C216.424 34.9555 217.428 32.7802 217.893 30.4628C218.358 28.1454 218.27 25.751 217.636 23.474C216.233 19.085 211.937 13.597 207.055 13.109Z" fill="#2F2E41"/>
<path d="M583.587 540.184H295.32C293.905 540.182 292.548 539.619 291.547 538.618C290.547 537.618 289.984 536.261 289.982 534.846V463.338C289.984 461.923 290.546 460.566 291.547 459.565C292.548 458.564 293.905 458.002 295.32 458H583.587C585.002 458.002 586.359 458.565 587.359 459.566C588.36 460.566 588.923 461.923 588.925 463.338V534.845C588.923 536.26 588.36 537.617 587.359 538.618C586.359 539.618 585.002 540.182 583.587 540.184ZM295.32 460.131C294.472 460.133 293.659 460.471 293.059 461.07C292.459 461.67 292.122 462.483 292.12 463.331V534.838C292.122 535.686 292.459 536.499 293.059 537.099C293.659 537.698 294.472 538.036 295.32 538.038H583.587C584.435 538.036 585.248 537.699 585.848 537.099C586.448 536.499 586.785 535.686 586.787 534.838V463.338C586.785 462.49 586.447 461.677 585.848 461.077C585.248 460.478 584.435 460.14 583.587 460.138L295.32 460.131Z" fill="#3F3D56"/>
<path d="M256.917 278.417L247.191 175.322L218.191 176.322L241.148 278.129C239.275 279.701 237.926 281.808 237.283 284.167C236.64 286.526 236.732 289.025 237.547 291.33C238.363 293.635 239.862 295.637 241.846 297.067C243.83 298.496 246.203 299.286 248.648 299.331C251.092 299.376 253.493 298.673 255.527 297.316C257.562 295.96 259.134 294.015 260.033 291.741C260.932 289.467 261.115 286.973 260.558 284.592C260.002 282.211 258.731 280.057 256.917 278.417Z" fill="#FFB8B8"/>
<path d="M257.19 177.322L213.19 187.322L211.19 115.322L236.19 116.322L257.19 177.322Z" fill="#094B72"/>
<path d="M210.494 519.521L242.408 519.52H242.41C247.803 519.52 252.976 521.663 256.791 525.477C260.605 529.291 262.748 534.464 262.748 539.858V540.518L210.495 540.52L210.494 519.521Z" fill="#212121"/>
<path d="M130.338 494.252L157.167 511.536L157.168 511.536C161.702 514.458 164.89 519.061 166.031 524.333C167.172 529.605 166.171 535.114 163.25 539.648L162.892 540.204L118.965 511.906L130.338 494.252Z" fill="#212121"/>
<path d="M738.22 540.262H0V542.262H738.22V540.262Z" fill="#CACACA"/>
</g>
<defs>
<clipPath id="clip0_343_945">
<rect width="738.22" height="542.262" fill="white"/>
</clipPath>
</defs>
</svg>
